<svg xmlns="http://www.w3.org/2000/svg" version="1.1" xmlns:xlink="http://www.w3.org/1999/xlink" xmlns:svgjs="http://svgjs.dev/svgjs" viewBox="0 0 325 100"><rect width="100%" height="100%" fill="hsl(292, 100%, 22%)"></rect><g fill="#0a0a0a">
    <rect width="100%" height="40" fill="#0a0a0a"></rect>

    <rect x="0" width="3.7037%" height="66.72781625250208" rx="7"></rect>
      <rect x="7.4074074074%" width="3.7037%" height="81.36402395925664" rx="7"></rect>
      <rect x="14.8148148148%" width="3.7037%" height="60.03403095321704" rx="7"></rect>
      <rect x="22.2222222222%" width="3.7037%" height="85.57791393828397" rx="7"></rect>
      <rect x="29.6296296296%" width="3.7037%" height="89.76854222762697" rx="7"></rect>
      <rect x="37.037037037%" width="3.7037%" height="95.23192694725252" rx="7"></rect>
      <rect x="44.4444444444%" width="3.7037%" height="85.54504998188433" rx="7"></rect>
      <rect x="51.8518518518%" width="3.7037%" height="65.73341411850083" rx="7"></rect>
      <rect x="59.2592592592%" width="3.7037%" height="83.18729489469675" rx="7"></rect>
      <rect x="66.6666666666%" width="3.7037%" height="91.99791725517788" rx="7"></rect>
      <rect x="74.074074074%" width="3.7037%" height="88.73670342224955" rx="7"></rect>
      <rect x="81.4814814814%" width="3.7037%" height="87.03025703599502" rx="7"></rect>
      <rect x="88.8888888888%" width="3.7037%" height="93.95631672945447" rx="7"></rect>
      <rect x="96.2962962962%" width="3.7037%" height="85.81235399801537" rx="7"></rect>
  </g><g fill="hsl(292, 100%, 22%)">
    <rect x="3.7037%" y="8.646729905583951" width="3.7037%" height="60" rx="7"></rect>
      <rect x="11.1111111111%" y="4.9564790949868875" width="3.7037%" height="60" rx="7"></rect>
      <rect x="18.5185185185%" y="19.730318944289998" width="3.7037%" height="60" rx="7"></rect>
      <rect x="25.9259259259%" y="10.516109868013634" width="3.7037%" height="60" rx="7"></rect>
      <rect x="33.3333333333%" y="12.491603803155586" width="3.7037%" height="60" rx="7"></rect>
      <rect x="40.7407407407%" y="5.021629442605842" width="3.7037%" height="60" rx="7"></rect>
      <rect x="48.1481481481%" y="5.88262594182624" width="3.7037%" height="60" rx="7"></rect>
      <rect x="55.5555555555%" y="17.297141242696807" width="3.7037%" height="60" rx="7"></rect>
      <rect x="62.9629629629%" y="6.249239011397297" width="3.7037%" height="60" rx="7"></rect>
      <rect x="70.3703703703%" y="9.918270902882696" width="3.7037%" height="60" rx="7"></rect>
      <rect x="77.7777777777%" y="19.85372845047562" width="3.7037%" height="60" rx="7"></rect>
      <rect x="85.1851851851%" y="18.47842447413632" width="3.7037%" height="60" rx="7"></rect>
      <rect x="92.5925925925%" y="8.724276757921746" width="3.7037%" height="60" rx="7"></rect>
  </g></svg>